REM DIRINDEX 1\2,1\3,1\4,1\6,1\5\7,1\5\8
REM DIRNAME cjc114,folder01,folder02,folder03,folder04,folder05,folder06,folder07
TITLE ""
FILE "DB4500_5th_6C_30.mp3" MP3
  TRACK 01 AUDIO
    TITLE "0:"
    INDEX 01 00:00:00
  TRACK 02 AUDIO
    TITLE "2:cjc114_4282"
    INDEX 01 00:00:03
  TRACK 03 AUDIO
    TITLE "0:"
    INDEX 01 00:01:15
  TRACK 04 AUDIO
    TITLE "3:cjc114_4283"
    INDEX 01 00:01:28
  TRACK 05 AUDIO
    TITLE "0:"
    INDEX 01 00:02:53
  TRACK 06 AUDIO
    TITLE "4:cjc114_4284"
    INDEX 01 00:02:67
  TRACK 07 AUDIO
    TITLE "0:"
    INDEX 01 00:06:45
  TRACK 08 AUDIO
    TITLE "2:cjc114_4285"
    INDEX 01 00:07:11
  TRACK 09 AUDIO
    TITLE "0:"
    INDEX 01 00:08:21
  TRACK 10 AUDIO
    TITLE "3:cjc114_4286"
    INDEX 01 00:08:34
  TRACK 11 AUDIO
    TITLE "0:"
    INDEX 01 00:10:25
  TRACK 12 AUDIO
    TITLE "4:cjc114_4287"
    INDEX 01 00:10:39
  TRACK 13 AUDIO
    TITLE "0:"
    INDEX 01 00:12:63
  TRACK 14 AUDIO
    TITLE "2:cjc114_4288"
    INDEX 01 00:13:28
  TRACK 15 AUDIO
    TITLE "0:"
    INDEX 01 00:14:47
  TRACK 16 AUDIO
    TITLE "3:cjc114_4289"
    INDEX 01 00:14:60
  TRACK 17 AUDIO
    TITLE "0:"
    INDEX 01 00:16:04
  TRACK 18 AUDIO
    TITLE "4:cjc114_4290"
    INDEX 01 00:16:18
  TRACK 19 AUDIO
    TITLE "0:"
    INDEX 01 00:19:52
  TRACK 20 AUDIO
    TITLE "2:cjc114_4291"
    INDEX 01 00:20:14
  TRACK 21 AUDIO
    TITLE "0:"
    INDEX 01 00:22:70
  TRACK 22 AUDIO
    TITLE "3:cjc114_4292"
    INDEX 01 00:23:08
  TRACK 23 AUDIO
    TITLE "0:"
    INDEX 01 00:24:37
  TRACK 24 AUDIO
    TITLE "4:cjc114_4293"
    INDEX 01 00:24:51
  TRACK 25 AUDIO
    TITLE "0:"
    INDEX 01 00:27:12
  TRACK 26 AUDIO
    TITLE "4:cjc114_4294"
    INDEX 01 00:27:59
  TRACK 27 AUDIO
    TITLE "0:"
    INDEX 01 00:31:26
  TRACK 28 AUDIO
    TITLE "2:cjc114_4295"
    INDEX 01 00:32:07
  TRACK 29 AUDIO
    TITLE "0:"
    INDEX 01 00:33:22
  TRACK 30 AUDIO
    TITLE "3:cjc114_4296"
    INDEX 01 00:33:42
  TRACK 31 AUDIO
    TITLE "0:"
    INDEX 01 00:35:14
  TRACK 32 AUDIO
    TITLE "4:cjc114_4297"
    INDEX 01 00:35:35
  TRACK 33 AUDIO
    TITLE "0:"
    INDEX 01 00:39:07
  TRACK 34 AUDIO
    TITLE "2:cjc114_4298"
    INDEX 01 00:39:51
  TRACK 35 AUDIO
    TITLE "0:"
    INDEX 01 00:40:46
  TRACK 36 AUDIO
    TITLE "3:cjc114_4299"
    INDEX 01 00:40:70
  TRACK 37 AUDIO
    TITLE "0:"
    INDEX 01 00:41:69
  TRACK 38 AUDIO
    TITLE "4:cjc114_4300"
    INDEX 01 00:42:18
  TRACK 39 AUDIO
    TITLE "0:"
    INDEX 01 00:44:71
  TRACK 40 AUDIO
    TITLE "2:cjc114_4301"
    INDEX 01 00:45:45
  TRACK 41 AUDIO
    TITLE "0:"
    INDEX 01 00:46:60
  TRACK 42 AUDIO
    TITLE "3:cjc114_4302"
    INDEX 01 00:47:05
  TRACK 43 AUDIO
    TITLE "0:"
    INDEX 01 00:48:14
  TRACK 44 AUDIO
    TITLE "4:cjc114_4303"
    INDEX 01 00:48:36
  TRACK 45 AUDIO
    TITLE "0:"
    INDEX 01 00:51:71
  TRACK 46 AUDIO
    TITLE "2:cjc114_4304"
    INDEX 01 00:52:41
  TRACK 47 AUDIO
    TITLE "0:"
    INDEX 01 00:53:43
  TRACK 48 AUDIO
    TITLE "3:cjc114_4305"
    INDEX 01 00:53:64
  TRACK 49 AUDIO
    TITLE "0:"
    INDEX 01 00:55:03
  TRACK 50 AUDIO
    TITLE "4:cjc114_4306"
    INDEX 01 00:55:22
  TRACK 51 AUDIO
    TITLE "0:"
    INDEX 01 00:59:08
  TRACK 52 AUDIO
    TITLE "2:cjc114_4307"
    INDEX 01 00:59:51
  TRACK 53 AUDIO
    TITLE "0:"
    INDEX 01 01:00:60
  TRACK 54 AUDIO
    TITLE "3:cjc114_4308"
    INDEX 01 01:01:07
  TRACK 55 AUDIO
    TITLE "0:"
    INDEX 01 01:02:24
  TRACK 56 AUDIO
    TITLE "4:cjc114_4309"
    INDEX 01 01:02:46
  TRACK 57 AUDIO
    TITLE "0:"
    INDEX 01 01:05:30
  TRACK 58 AUDIO
    TITLE "2:cjc114_4310"
    INDEX 01 01:06:02
  TRACK 59 AUDIO
    TITLE "0:"
    INDEX 01 01:07:12
  TRACK 60 AUDIO
    TITLE "3:cjc114_4311"
    INDEX 01 01:07:29
  TRACK 61 AUDIO
    TITLE "0:"
    INDEX 01 01:08:50
  TRACK 62 AUDIO
    TITLE "4:cjc114_4312"
    INDEX 01 01:08:72
  TRACK 63 AUDIO
    TITLE "0:"
    INDEX 01 01:12:38
  TRACK 64 AUDIO
    TITLE "2:cjc114_4313"
    INDEX 01 01:13:08
  TRACK 65 AUDIO
    TITLE "0:"
    INDEX 01 01:14:17
  TRACK 66 AUDIO
    TITLE "3:cjc114_4314"
    INDEX 01 01:14:37
  TRACK 67 AUDIO
    TITLE "0:"
    INDEX 01 01:15:58
  TRACK 68 AUDIO
    TITLE "4:cjc114_4315"
    INDEX 01 01:16:03
  TRACK 69 AUDIO
    TITLE "0:"
    INDEX 01 01:19:52
  TRACK 70 AUDIO
    TITLE "2:cjc114_4316"
    INDEX 01 01:20:24
  TRACK 71 AUDIO
    TITLE "0:"
    INDEX 01 01:21:29
  TRACK 72 AUDIO
    TITLE "3:cjc114_4317"
    INDEX 01 01:21:51
  TRACK 73 AUDIO
    TITLE "0:"
    INDEX 01 01:23:05
  TRACK 74 AUDIO
    TITLE "4:cjc114_4318"
    INDEX 01 01:23:22
  TRACK 75 AUDIO
    TITLE "0:"
    INDEX 01 01:26:29
